<svg xmlns="http://www.w3.org/2000/svg" width="1280" height="824" viewBox="0 0 1280 824">
  <rect width="1280" height="824" fill="#0b0c0e"/>
  <text x="24" y="38" fill="#d8d9da" font-size="18" font-weight="700" font-family="sans-serif">checkout-service / overview</text>
  <text x="1256" y="38" fill="#8e9097" font-size="13" text-anchor="end" font-family="monospace">prod · us-east-1 · 13:50–14:10 UTC</text>
  
  <g>
    <rect x="24" y="64" width="606" height="332" rx="3" fill="#181b1f" stroke="#2a2e33"/>
    <text x="38" y="88" fill="#d8d9da" font-size="14" font-weight="600" font-family="sans-serif">p99 latency (ms)</text>
    <text x="616" y="90" fill="#f2495c" font-size="20" font-weight="700" text-anchor="end" font-family="monospace">2.41 s</text>
    <line x1="80" y1="108" x2="80" y2="366" stroke="#23262b" stroke-width="1"/>
        <text x="80" y="384" fill="#8e9097" font-size="11" text-anchor="middle" font-family="sans-serif">13:50</text><line x1="213" y1="108" x2="213" y2="366" stroke="#23262b" stroke-width="1"/>
        <text x="213" y="384" fill="#8e9097" font-size="11" text-anchor="middle" font-family="sans-serif">13:55</text><line x1="346" y1="108" x2="346" y2="366" stroke="#23262b" stroke-width="1"/>
        <text x="346" y="384" fill="#8e9097" font-size="11" text-anchor="middle" font-family="sans-serif">14:00</text><line x1="479" y1="108" x2="479" y2="366" stroke="#23262b" stroke-width="1"/>
        <text x="479" y="384" fill="#8e9097" font-size="11" text-anchor="middle" font-family="sans-serif">14:05</text><line x1="612" y1="108" x2="612" y2="366" stroke="#23262b" stroke-width="1"/>
        <text x="612" y="384" fill="#8e9097" font-size="11" text-anchor="middle" font-family="sans-serif">14:10</text>
    <text x="72" y="370" fill="#8e9097" font-size="11" text-anchor="end" font-family="monospace">0</text><text x="72" y="293.55555555555554" fill="#8e9097" font-size="11" text-anchor="end" font-family="monospace">800</text><text x="72" y="217.11111111111111" fill="#8e9097" font-size="11" text-anchor="end" font-family="monospace">1600</text><text x="72" y="140.66666666666669" fill="#8e9097" font-size="11" text-anchor="end" font-family="monospace">2400</text><line x1="80" y1="289.55555555555554" x2="612" y2="289.55555555555554" stroke="#fade2a" stroke-width="1" stroke-dasharray="6 4" opacity="0.7"/>
    <text x="608" y="284.55555555555554" fill="#fade2a" font-size="10" text-anchor="end" font-family="monospace">warn 800ms</text><polygon points="80.0,366.0 80.0,355.2 85.3,354.0 90.6,355.1 96.0,354.5 101.3,354.7 106.6,354.6 111.9,354.4 117.2,355.0 122.6,356.1 127.9,355.8 133.2,355.2 138.5,355.4 143.8,356.3 149.2,355.2 154.5,355.4 159.8,354.6 165.1,354.0 170.4,354.6 175.8,354.3 181.1,354.8 186.4,354.2 191.7,354.5 197.0,354.3 202.4,356.0 207.7,356.4 213.0,356.1 218.3,355.9 223.6,356.5 229.0,356.3 234.3,356.0 239.6,353.9 244.9,354.2 250.2,354.8 255.6,354.6 260.9,354.9 266.2,354.4 271.5,353.9 276.8,354.0 282.2,355.9 287.5,355.5 292.8,355.7 298.1,355.3 303.4,355.9 308.8,356.3 314.1,355.6 319.4,354.1 324.7,354.8 330.0,354.5 335.4,355.0 340.7,355.0 346.0,354.8 351.3,355.0 356.6,355.5 362.0,355.8 367.3,356.0 372.6,355.4 377.9,355.9 383.2,356.2 388.6,356.1 393.9,356.3 399.2,354.5 404.5,318.2 409.8,281.9 415.2,245.6 420.5,209.3 425.8,173.0 431.1,149.1 436.4,144.1 441.8,142.0 447.1,136.8 452.4,140.8 457.7,136.4 463.0,144.0 468.4,148.7 473.7,143.3 479.0,141.7 484.3,136.0 489.6,132.5 495.0,139.1 500.3,142.9 505.6,148.1 510.9,144.1 516.2,145.8 521.6,134.5 526.9,139.8 532.2,133.2 537.5,136.8 542.8,145.7 548.2,145.8 553.5,148.4 558.8,137.3 564.1,132.7 569.4,134.1 574.8,137.2 580.1,146.8 585.4,148.4 590.7,144.0 596.0,132.7 601.4,134.9 606.7,135.7 612.0,134.0 612.0,366.0" fill="#f2495c" opacity="0.14"/><polyline points="80.0,355.2 85.3,354.0 90.6,355.1 96.0,354.5 101.3,354.7 106.6,354.6 111.9,354.4 117.2,355.0 122.6,356.1 127.9,355.8 133.2,355.2 138.5,355.4 143.8,356.3 149.2,355.2 154.5,355.4 159.8,354.6 165.1,354.0 170.4,354.6 175.8,354.3 181.1,354.8 186.4,354.2 191.7,354.5 197.0,354.3 202.4,356.0 207.7,356.4 213.0,356.1 218.3,355.9 223.6,356.5 229.0,356.3 234.3,356.0 239.6,353.9 244.9,354.2 250.2,354.8 255.6,354.6 260.9,354.9 266.2,354.4 271.5,353.9 276.8,354.0 282.2,355.9 287.5,355.5 292.8,355.7 298.1,355.3 303.4,355.9 308.8,356.3 314.1,355.6 319.4,354.1 324.7,354.8 330.0,354.5 335.4,355.0 340.7,355.0 346.0,354.8 351.3,355.0 356.6,355.5 362.0,355.8 367.3,356.0 372.6,355.4 377.9,355.9 383.2,356.2 388.6,356.1 393.9,356.3 399.2,354.5 404.5,318.2 409.8,281.9 415.2,245.6 420.5,209.3 425.8,173.0 431.1,149.1 436.4,144.1 441.8,142.0 447.1,136.8 452.4,140.8 457.7,136.4 463.0,144.0 468.4,148.7 473.7,143.3 479.0,141.7 484.3,136.0 489.6,132.5 495.0,139.1 500.3,142.9 505.6,148.1 510.9,144.1 516.2,145.8 521.6,134.5 526.9,139.8 532.2,133.2 537.5,136.8 542.8,145.7 548.2,145.8 553.5,148.4 558.8,137.3 564.1,132.7 569.4,134.1 574.8,137.2 580.1,146.8 585.4,148.4 590.7,144.0 596.0,132.7 601.4,134.9 606.7,135.7 612.0,134.0" fill="none" stroke="#f2495c" stroke-width="2.5" stroke-linejoin="round" stroke-linecap="round"/>
    
    <line x1="399.2" y1="108" x2="399.2" y2="366" stroke="#f2495c" stroke-width="1.5" stroke-dasharray="4 3" opacity="0.85"/>
    <text x="403.2" y="120" fill="#f2495c" font-size="11" font-family="monospace">deploy v2.31.0</text>
  </g>
  
  <g>
    <rect x="650" y="64" width="606" height="332" rx="3" fill="#181b1f" stroke="#2a2e33"/>
    <text x="664" y="88" fill="#d8d9da" font-size="14" font-weight="600" font-family="sans-serif">HTTP status rate (%)</text>
    <text x="1242" y="90" fill="#f2495c" font-size="20" font-weight="700" text-anchor="end" font-family="monospace">5xx 6.8%</text>
    <line x1="706" y1="108" x2="706" y2="366" stroke="#23262b" stroke-width="1"/>
        <text x="706" y="384" fill="#8e9097" font-size="11" text-anchor="middle" font-family="sans-serif">13:50</text><line x1="839" y1="108" x2="839" y2="366" stroke="#23262b" stroke-width="1"/>
        <text x="839" y="384" fill="#8e9097" font-size="11" text-anchor="middle" font-family="sans-serif">13:55</text><line x1="972" y1="108" x2="972" y2="366" stroke="#23262b" stroke-width="1"/>
        <text x="972" y="384" fill="#8e9097" font-size="11" text-anchor="middle" font-family="sans-serif">14:00</text><line x1="1105" y1="108" x2="1105" y2="366" stroke="#23262b" stroke-width="1"/>
        <text x="1105" y="384" fill="#8e9097" font-size="11" text-anchor="middle" font-family="sans-serif">14:05</text><line x1="1238" y1="108" x2="1238" y2="366" stroke="#23262b" stroke-width="1"/>
        <text x="1238" y="384" fill="#8e9097" font-size="11" text-anchor="middle" font-family="sans-serif">14:10</text>
    <text x="698" y="370" fill="#8e9097" font-size="11" text-anchor="end" font-family="monospace">0</text><text x="698" y="305.5" fill="#8e9097" font-size="11" text-anchor="end" font-family="monospace">2.5</text><text x="698" y="241" fill="#8e9097" font-size="11" text-anchor="end" font-family="monospace">5</text><text x="698" y="176.5" fill="#8e9097" font-size="11" text-anchor="end" font-family="monospace">7.5</text><text x="698" y="112" fill="#8e9097" font-size="11" text-anchor="end" font-family="monospace">10</text><polygon points="706.0,366.0 706.0,118.3 711.3,118.3 716.6,118.3 722.0,118.3 727.3,118.3 732.6,118.3 737.9,118.3 743.2,118.3 748.6,118.3 753.9,118.3 759.2,118.3 764.5,118.3 769.8,118.3 775.2,118.3 780.5,118.3 785.8,118.3 791.1,118.3 796.4,118.3 801.8,118.3 807.1,118.3 812.4,118.3 817.7,118.3 823.0,118.3 828.4,118.3 833.7,118.3 839.0,118.3 844.3,118.3 849.6,118.3 855.0,118.3 860.3,118.3 865.6,118.3 870.9,118.3 876.2,118.3 881.6,118.3 886.9,118.3 892.2,118.3 897.5,118.3 902.8,118.3 908.2,118.3 913.5,118.3 918.8,118.3 924.1,118.3 929.4,118.3 934.8,118.3 940.1,118.3 945.4,118.3 950.7,118.3 956.0,118.3 961.4,118.3 966.7,118.3 972.0,118.3 977.3,118.3 982.6,118.3 988.0,118.3 993.3,118.3 998.6,118.3 1003.9,118.3 1009.2,118.3 1014.6,118.3 1019.9,118.3 1025.2,118.3 1030.5,118.3 1035.8,118.3 1041.2,118.3 1046.5,118.3 1051.8,118.3 1057.1,118.3 1062.4,118.3 1067.8,118.3 1073.1,118.3 1078.4,118.3 1083.7,118.3 1089.0,118.3 1094.4,118.3 1099.7,118.3 1105.0,118.3 1110.3,118.3 1115.6,118.3 1121.0,118.3 1126.3,118.3 1131.6,118.3 1136.9,118.3 1142.2,118.3 1147.6,118.3 1152.9,118.3 1158.2,118.3 1163.5,118.3 1168.8,118.3 1174.2,118.3 1179.5,118.3 1184.8,118.3 1190.1,118.3 1195.4,118.3 1200.8,118.3 1206.1,118.3 1211.4,118.3 1216.7,118.3 1222.0,118.3 1227.4,118.3 1232.7,118.3 1238.0,118.3 1238.0,366.0" fill="#73bf69" opacity="0.22"/><polygon points="706.0,366.0 706.0,363.4 711.3,363.4 716.6,363.4 722.0,363.4 727.3,363.4 732.6,363.4 737.9,363.4 743.2,363.4 748.6,363.4 753.9,363.4 759.2,363.4 764.5,363.4 769.8,363.4 775.2,363.4 780.5,363.4 785.8,363.4 791.1,363.4 796.4,363.4 801.8,363.4 807.1,363.4 812.4,363.4 817.7,363.4 823.0,363.4 828.4,363.4 833.7,363.4 839.0,363.4 844.3,363.4 849.6,363.4 855.0,363.4 860.3,363.4 865.6,363.4 870.9,363.4 876.2,363.4 881.6,363.4 886.9,363.4 892.2,363.4 897.5,363.4 902.8,363.4 908.2,363.4 913.5,363.4 918.8,363.4 924.1,363.4 929.4,363.4 934.8,363.4 940.1,363.4 945.4,363.4 950.7,363.4 956.0,363.4 961.4,363.4 966.7,363.4 972.0,363.4 977.3,363.4 982.6,363.4 988.0,363.4 993.3,363.4 998.6,363.4 1003.9,363.4 1009.2,363.4 1014.6,363.4 1019.9,363.4 1025.2,363.4 1030.5,320.2 1035.8,277.0 1041.2,233.8 1046.5,206.6 1051.8,201.2 1057.1,186.1 1062.4,201.9 1067.8,183.4 1073.1,196.9 1078.4,206.4 1083.7,190.5 1089.0,187.0 1094.4,202.0 1099.7,197.3 1105.0,195.7 1110.3,203.3 1115.6,187.4 1121.0,183.6 1126.3,212.5 1131.6,196.9 1136.9,203.7 1142.2,199.3 1147.6,193.4 1152.9,204.7 1158.2,207.8 1163.5,197.6 1168.8,210.8 1174.2,199.1 1179.5,183.6 1184.8,211.1 1190.1,208.6 1195.4,183.5 1200.8,209.9 1206.1,191.1 1211.4,195.9 1216.7,211.1 1222.0,186.5 1227.4,185.1 1232.7,207.0 1238.0,186.9 1238.0,366.0" fill="#f2495c" opacity="0.55"/><polyline points="706.0,363.4 711.3,363.4 716.6,363.4 722.0,363.4 727.3,363.4 732.6,363.4 737.9,363.4 743.2,363.4 748.6,363.4 753.9,363.4 759.2,363.4 764.5,363.4 769.8,363.4 775.2,363.4 780.5,363.4 785.8,363.4 791.1,363.4 796.4,363.4 801.8,363.4 807.1,363.4 812.4,363.4 817.7,363.4 823.0,363.4 828.4,363.4 833.7,363.4 839.0,363.4 844.3,363.4 849.6,363.4 855.0,363.4 860.3,363.4 865.6,363.4 870.9,363.4 876.2,363.4 881.6,363.4 886.9,363.4 892.2,363.4 897.5,363.4 902.8,363.4 908.2,363.4 913.5,363.4 918.8,363.4 924.1,363.4 929.4,363.4 934.8,363.4 940.1,363.4 945.4,363.4 950.7,363.4 956.0,363.4 961.4,363.4 966.7,363.4 972.0,363.4 977.3,363.4 982.6,363.4 988.0,363.4 993.3,363.4 998.6,363.4 1003.9,363.4 1009.2,363.4 1014.6,363.4 1019.9,363.4 1025.2,363.4 1030.5,320.2 1035.8,277.0 1041.2,233.8 1046.5,206.6 1051.8,201.2 1057.1,186.1 1062.4,201.9 1067.8,183.4 1073.1,196.9 1078.4,206.4 1083.7,190.5 1089.0,187.0 1094.4,202.0 1099.7,197.3 1105.0,195.7 1110.3,203.3 1115.6,187.4 1121.0,183.6 1126.3,212.5 1131.6,196.9 1136.9,203.7 1142.2,199.3 1147.6,193.4 1152.9,204.7 1158.2,207.8 1163.5,197.6 1168.8,210.8 1174.2,199.1 1179.5,183.6 1184.8,211.1 1190.1,208.6 1195.4,183.5 1200.8,209.9 1206.1,191.1 1211.4,195.9 1216.7,211.1 1222.0,186.5 1227.4,185.1 1232.7,207.0 1238.0,186.9" fill="none" stroke="#f2495c" stroke-width="2" stroke-linejoin="round" stroke-linecap="round"/><rect x="712" y="114" width="10" height="10" fill="#73bf69" opacity="0.6"/><text x="726" y="123" fill="#8e9097" font-size="11" font-family="monospace">2xx 93.2%</text>
    <rect x="816" y="114" width="10" height="10" fill="#f2495c" opacity="0.7"/><text x="830" y="123" fill="#8e9097" font-size="11" font-family="monospace">5xx 6.8%</text>
    
    <line x1="1025.2" y1="108" x2="1025.2" y2="366" stroke="#f2495c" stroke-width="1.5" stroke-dasharray="4 3" opacity="0.85"/>
    <text x="1029.2" y="120" fill="#f2495c" font-size="11" font-family="monospace">deploy v2.31.0</text>
  </g>
  
  <g>
    <rect x="24" y="412" width="606" height="332" rx="3" fill="#181b1f" stroke="#2a2e33"/>
    <text x="38" y="436" fill="#d8d9da" font-size="14" font-weight="600" font-family="sans-serif">DB connection pool (HikariPool-1): active vs max</text>
    <text x="616" y="438" fill="#f2495c" font-size="20" font-weight="700" text-anchor="end" font-family="monospace">100 / 100</text>
    <line x1="80" y1="456" x2="80" y2="714" stroke="#23262b" stroke-width="1"/>
        <text x="80" y="732" fill="#8e9097" font-size="11" text-anchor="middle" font-family="sans-serif">13:50</text><line x1="213" y1="456" x2="213" y2="714" stroke="#23262b" stroke-width="1"/>
        <text x="213" y="732" fill="#8e9097" font-size="11" text-anchor="middle" font-family="sans-serif">13:55</text><line x1="346" y1="456" x2="346" y2="714" stroke="#23262b" stroke-width="1"/>
        <text x="346" y="732" fill="#8e9097" font-size="11" text-anchor="middle" font-family="sans-serif">14:00</text><line x1="479" y1="456" x2="479" y2="714" stroke="#23262b" stroke-width="1"/>
        <text x="479" y="732" fill="#8e9097" font-size="11" text-anchor="middle" font-family="sans-serif">14:05</text><line x1="612" y1="456" x2="612" y2="714" stroke="#23262b" stroke-width="1"/>
        <text x="612" y="732" fill="#8e9097" font-size="11" text-anchor="middle" font-family="sans-serif">14:10</text>
    <text x="72" y="718" fill="#8e9097" font-size="11" text-anchor="end" font-family="monospace">0</text><text x="72" y="659.3636363636364" fill="#8e9097" font-size="11" text-anchor="end" font-family="monospace">25</text><text x="72" y="600.7272727272727" fill="#8e9097" font-size="11" text-anchor="end" font-family="monospace">50</text><text x="72" y="542.0909090909091" fill="#8e9097" font-size="11" text-anchor="end" font-family="monospace">75</text><text x="72" y="483.4545454545455" fill="#8e9097" font-size="11" text-anchor="end" font-family="monospace">100</text><line x1="80" y1="479.4545454545455" x2="612" y2="479.4545454545455" stroke="#8e9097" stroke-width="1.5" stroke-dasharray="2 2"/>
    <text x="86" y="474.4545454545455" fill="#8e9097" font-size="10" font-family="monospace">max 100</text><polygon points="80.0,714.0 80.0,683.5 85.3,683.3 90.6,688.3 96.0,675.8 101.3,689.4 106.6,682.0 111.9,690.4 117.2,682.6 122.6,692.3 127.9,678.6 133.2,682.0 138.5,683.7 143.8,683.3 149.2,688.4 154.5,677.8 159.8,685.2 165.1,679.0 170.4,690.6 175.8,682.1 181.1,678.3 186.4,685.2 191.7,677.1 197.0,686.4 202.4,682.5 207.7,684.8 213.0,680.1 218.3,692.0 223.6,676.1 229.0,685.8 234.3,689.4 239.6,678.3 244.9,686.4 250.2,679.0 255.6,687.6 260.9,675.0 266.2,688.9 271.5,675.4 276.8,684.4 282.2,688.8 287.5,682.4 292.8,691.4 298.1,677.4 303.4,688.1 308.8,677.9 314.1,689.2 319.4,675.9 324.7,684.3 330.0,675.3 335.4,680.1 340.7,684.2 346.0,678.1 351.3,687.3 356.6,677.6 362.0,692.4 367.3,679.4 372.6,686.0 377.9,680.0 383.2,679.2 388.6,686.3 393.9,678.2 399.2,688.6 404.5,678.8 409.8,629.0 415.2,579.1 420.5,529.3 425.8,479.5 431.1,479.5 436.4,479.5 441.8,479.5 447.1,479.5 452.4,479.5 457.7,479.5 463.0,479.5 468.4,479.5 473.7,479.5 479.0,479.5 484.3,479.5 489.6,479.5 495.0,479.5 500.3,479.5 505.6,479.5 510.9,479.5 516.2,479.5 521.6,479.5 526.9,479.5 532.2,479.5 537.5,479.5 542.8,479.5 548.2,479.5 553.5,479.5 558.8,479.5 564.1,479.5 569.4,479.5 574.8,479.5 580.1,479.5 585.4,479.5 590.7,479.5 596.0,479.5 601.4,479.5 606.7,479.5 612.0,479.5 612.0,714.0" fill="#5794f2" opacity="0.16"/><polyline points="80.0,683.5 85.3,683.3 90.6,688.3 96.0,675.8 101.3,689.4 106.6,682.0 111.9,690.4 117.2,682.6 122.6,692.3 127.9,678.6 133.2,682.0 138.5,683.7 143.8,683.3 149.2,688.4 154.5,677.8 159.8,685.2 165.1,679.0 170.4,690.6 175.8,682.1 181.1,678.3 186.4,685.2 191.7,677.1 197.0,686.4 202.4,682.5 207.7,684.8 213.0,680.1 218.3,692.0 223.6,676.1 229.0,685.8 234.3,689.4 239.6,678.3 244.9,686.4 250.2,679.0 255.6,687.6 260.9,675.0 266.2,688.9 271.5,675.4 276.8,684.4 282.2,688.8 287.5,682.4 292.8,691.4 298.1,677.4 303.4,688.1 308.8,677.9 314.1,689.2 319.4,675.9 324.7,684.3 330.0,675.3 335.4,680.1 340.7,684.2 346.0,678.1 351.3,687.3 356.6,677.6 362.0,692.4 367.3,679.4 372.6,686.0 377.9,680.0 383.2,679.2 388.6,686.3 393.9,678.2 399.2,688.6 404.5,678.8 409.8,629.0 415.2,579.1 420.5,529.3 425.8,479.5 431.1,479.5 436.4,479.5 441.8,479.5 447.1,479.5 452.4,479.5 457.7,479.5 463.0,479.5 468.4,479.5 473.7,479.5 479.0,479.5 484.3,479.5 489.6,479.5 495.0,479.5 500.3,479.5 505.6,479.5 510.9,479.5 516.2,479.5 521.6,479.5 526.9,479.5 532.2,479.5 537.5,479.5 542.8,479.5 548.2,479.5 553.5,479.5 558.8,479.5 564.1,479.5 569.4,479.5 574.8,479.5 580.1,479.5 585.4,479.5 590.7,479.5 596.0,479.5 601.4,479.5 606.7,479.5 612.0,479.5" fill="none" stroke="#5794f2" stroke-width="2.5" stroke-linejoin="round" stroke-linecap="round"/><polyline points="80.0,714.0 85.3,714.0 90.6,714.0 96.0,714.0 101.3,714.0 106.6,714.0 111.9,714.0 117.2,714.0 122.6,714.0 127.9,714.0 133.2,714.0 138.5,714.0 143.8,714.0 149.2,714.0 154.5,714.0 159.8,714.0 165.1,714.0 170.4,714.0 175.8,714.0 181.1,714.0 186.4,714.0 191.7,714.0 197.0,714.0 202.4,714.0 207.7,714.0 213.0,714.0 218.3,714.0 223.6,714.0 229.0,714.0 234.3,714.0 239.6,714.0 244.9,714.0 250.2,714.0 255.6,714.0 260.9,714.0 266.2,714.0 271.5,714.0 276.8,714.0 282.2,714.0 287.5,714.0 292.8,714.0 298.1,714.0 303.4,714.0 308.8,714.0 314.1,714.0 319.4,714.0 324.7,714.0 330.0,714.0 335.4,714.0 340.7,714.0 346.0,714.0 351.3,714.0 356.6,714.0 362.0,714.0 367.3,714.0 372.6,714.0 377.9,714.0 383.2,714.0 388.6,714.0 393.9,714.0 399.2,714.0 404.5,714.0 409.8,714.0 415.2,691.3 420.5,668.7 425.8,646.0 431.1,623.3 436.4,600.6 441.8,580.4 447.1,598.0 452.4,592.7 457.7,584.4 463.0,582.5 468.4,588.3 473.7,592.8 479.0,573.8 484.3,578.6 489.6,598.4 495.0,591.4 500.3,588.2 505.6,583.0 510.9,572.2 516.2,588.2 521.6,593.0 526.9,578.3 532.2,583.4 537.5,593.0 542.8,598.0 548.2,573.9 553.5,572.3 558.8,593.4 564.1,591.3 569.4,583.8 574.8,579.6 580.1,590.0 585.4,595.9 590.7,574.7 596.0,574.9 601.4,598.2 606.7,598.3 612.0,582.6" fill="none" stroke="#ff9830" stroke-width="2" stroke-linejoin="round" stroke-linecap="round"/><rect x="462" y="462" width="10" height="3" fill="#5794f2"/><text x="478" y="469" fill="#8e9097" font-size="11" font-family="monospace">active</text>
    <rect x="532" y="462" width="10" height="3" fill="#ff9830"/><text x="548" y="469" fill="#8e9097" font-size="11" font-family="monospace">pending</text>
    
    <line x1="399.2" y1="456" x2="399.2" y2="714" stroke="#f2495c" stroke-width="1.5" stroke-dasharray="4 3" opacity="0.85"/>
    <text x="403.2" y="468" fill="#f2495c" font-size="11" font-family="monospace">deploy v2.31.0</text>
  </g>
  
  <g>
    <rect x="650" y="412" width="606" height="332" rx="3" fill="#181b1f" stroke="#2a2e33"/>
    <text x="664" y="436" fill="#d8d9da" font-size="14" font-weight="600" font-family="sans-serif">requests/sec (RPS)</text>
    <text x="1242" y="438" fill="#73bf69" font-size="20" font-weight="700" text-anchor="end" font-family="monospace">1.20k rps</text>
    <line x1="706" y1="456" x2="706" y2="714" stroke="#23262b" stroke-width="1"/>
        <text x="706" y="732" fill="#8e9097" font-size="11" text-anchor="middle" font-family="sans-serif">13:50</text><line x1="839" y1="456" x2="839" y2="714" stroke="#23262b" stroke-width="1"/>
        <text x="839" y="732" fill="#8e9097" font-size="11" text-anchor="middle" font-family="sans-serif">13:55</text><line x1="972" y1="456" x2="972" y2="714" stroke="#23262b" stroke-width="1"/>
        <text x="972" y="732" fill="#8e9097" font-size="11" text-anchor="middle" font-family="sans-serif">14:00</text><line x1="1105" y1="456" x2="1105" y2="714" stroke="#23262b" stroke-width="1"/>
        <text x="1105" y="732" fill="#8e9097" font-size="11" text-anchor="middle" font-family="sans-serif">14:05</text><line x1="1238" y1="456" x2="1238" y2="714" stroke="#23262b" stroke-width="1"/>
        <text x="1238" y="732" fill="#8e9097" font-size="11" text-anchor="middle" font-family="sans-serif">14:10</text>
    <text x="698" y="718" fill="#8e9097" font-size="11" text-anchor="end" font-family="monospace">0</text><text x="698" y="653.5" fill="#8e9097" font-size="11" text-anchor="end" font-family="monospace">500</text><text x="698" y="589" fill="#8e9097" font-size="11" text-anchor="end" font-family="monospace">1000</text><text x="698" y="524.5" fill="#8e9097" font-size="11" text-anchor="end" font-family="monospace">1500</text><text x="698" y="460" fill="#8e9097" font-size="11" text-anchor="end" font-family="monospace">2000</text><polygon points="706.0,714.0 706.0,563.1 711.3,560.1 716.6,567.4 722.0,553.0 727.3,562.7 732.6,555.0 737.9,566.2 743.2,560.1 748.6,563.9 753.9,555.1 759.2,569.0 764.5,557.9 769.8,568.9 775.2,564.6 780.5,566.9 785.8,561.2 791.1,571.0 796.4,559.1 801.8,572.7 807.1,563.2 812.4,570.7 817.7,556.4 823.0,564.5 828.4,556.6 833.7,564.1 839.0,552.4 844.3,564.3 849.6,561.1 855.0,557.5 860.3,562.9 865.6,554.1 870.9,569.0 876.2,563.0 881.6,565.8 886.9,562.8 892.2,570.1 897.5,564.8 902.8,570.6 908.2,562.5 913.5,569.0 918.8,563.7 924.1,565.7 929.4,559.3 934.8,566.4 940.1,555.0 945.4,565.1 950.7,559.3 956.0,562.6 961.4,554.3 966.7,567.6 972.0,559.7 977.3,562.7 982.6,555.4 988.0,557.3 993.3,567.3 998.6,560.7 1003.9,569.1 1009.2,561.8 1014.6,572.5 1019.9,560.2 1025.2,571.9 1030.5,564.3 1035.8,569.7 1041.2,561.8 1046.5,568.4 1051.8,559.7 1057.1,564.8 1062.4,556.6 1067.8,562.6 1073.1,553.8 1078.4,567.4 1083.7,560.6 1089.0,564.5 1094.4,555.3 1099.7,567.1 1105.0,558.3 1110.3,571.1 1115.6,562.2 1121.0,573.6 1126.3,570.0 1131.6,558.8 1136.9,567.0 1142.2,558.5 1147.6,564.4 1152.9,561.8 1158.2,569.0 1163.5,561.0 1168.8,564.1 1174.2,555.2 1179.5,564.1 1184.8,554.4 1190.1,562.6 1195.4,558.1 1200.8,563.8 1206.1,561.4 1211.4,567.7 1216.7,563.4 1222.0,569.1 1227.4,562.1 1232.7,570.4 1238.0,564.2 1238.0,714.0" fill="#73bf69" opacity="0.12"/><polyline points="706.0,563.1 711.3,560.1 716.6,567.4 722.0,553.0 727.3,562.7 732.6,555.0 737.9,566.2 743.2,560.1 748.6,563.9 753.9,555.1 759.2,569.0 764.5,557.9 769.8,568.9 775.2,564.6 780.5,566.9 785.8,561.2 791.1,571.0 796.4,559.1 801.8,572.7 807.1,563.2 812.4,570.7 817.7,556.4 823.0,564.5 828.4,556.6 833.7,564.1 839.0,552.4 844.3,564.3 849.6,561.1 855.0,557.5 860.3,562.9 865.6,554.1 870.9,569.0 876.2,563.0 881.6,565.8 886.9,562.8 892.2,570.1 897.5,564.8 902.8,570.6 908.2,562.5 913.5,569.0 918.8,563.7 924.1,565.7 929.4,559.3 934.8,566.4 940.1,555.0 945.4,565.1 950.7,559.3 956.0,562.6 961.4,554.3 966.7,567.6 972.0,559.7 977.3,562.7 982.6,555.4 988.0,557.3 993.3,567.3 998.6,560.7 1003.9,569.1 1009.2,561.8 1014.6,572.5 1019.9,560.2 1025.2,571.9 1030.5,564.3 1035.8,569.7 1041.2,561.8 1046.5,568.4 1051.8,559.7 1057.1,564.8 1062.4,556.6 1067.8,562.6 1073.1,553.8 1078.4,567.4 1083.7,560.6 1089.0,564.5 1094.4,555.3 1099.7,567.1 1105.0,558.3 1110.3,571.1 1115.6,562.2 1121.0,573.6 1126.3,570.0 1131.6,558.8 1136.9,567.0 1142.2,558.5 1147.6,564.4 1152.9,561.8 1158.2,569.0 1163.5,561.0 1168.8,564.1 1174.2,555.2 1179.5,564.1 1184.8,554.4 1190.1,562.6 1195.4,558.1 1200.8,563.8 1206.1,561.4 1211.4,567.7 1216.7,563.4 1222.0,569.1 1227.4,562.1 1232.7,570.4 1238.0,564.2" fill="none" stroke="#73bf69" stroke-width="2.5" stroke-linejoin="round" stroke-linecap="round"/>
    
    <line x1="1025.2" y1="456" x2="1025.2" y2="714" stroke="#f2495c" stroke-width="1.5" stroke-dasharray="4 3" opacity="0.85"/>
    <text x="1029.2" y="468" fill="#f2495c" font-size="11" font-family="monospace">deploy v2.31.0</text>
  </g>
</svg>